<svg width="961" height="242" viewBox="0 0 961 242" fill="none" xmlns="http://www.w3.org/2000/svg">
<rect width="961" height="242" fill="#0C0C0C"/>
<path d="M149.8 106.92V135H142.96V123.44H132.32V135H125.48V106.92H132.32V117.92H142.96V106.92H149.8ZM161.578 112.4V118.08H170.738V123.36H161.578V129.52H171.938V135H154.738V106.92H171.938V112.4H161.578ZM200.458 106.92L190.738 125.72V135H183.898V125.72L174.178 106.92H181.938L187.378 118.68L192.778 106.92H200.458ZM210.574 128.68L206.134 140.16H201.774L204.094 128.68H210.574ZM241.815 115.8C241.309 114.867 240.575 114.16 239.615 113.68C238.682 113.173 237.575 112.92 236.295 112.92C234.082 112.92 232.309 113.653 230.975 115.12C229.642 116.56 228.975 118.493 228.975 120.92C228.975 123.507 229.669 125.533 231.055 127C232.469 128.44 234.402 129.16 236.855 129.16C238.535 129.16 239.949 128.733 241.095 127.88C242.269 127.027 243.122 125.8 243.655 124.2H234.975V119.16H249.855V125.52C249.349 127.227 248.482 128.813 247.255 130.28C246.055 131.747 244.522 132.933 242.655 133.84C240.789 134.747 238.682 135.2 236.335 135.2C233.562 135.2 231.082 134.6 228.895 133.4C226.735 132.173 225.042 130.48 223.815 128.32C222.615 126.16 222.015 123.693 222.015 120.92C222.015 118.147 222.615 115.68 223.815 113.52C225.042 111.333 226.735 109.64 228.895 108.44C231.055 107.213 233.522 106.6 236.295 106.6C239.655 106.6 242.482 107.413 244.775 109.04C247.095 110.667 248.629 112.92 249.375 115.8H241.815ZM260.364 106.92V123.72C260.364 125.4 260.777 126.693 261.604 127.6C262.431 128.507 263.644 128.96 265.244 128.96C266.844 128.96 268.071 128.507 268.924 127.6C269.777 126.693 270.204 125.4 270.204 123.72V106.92H277.044V123.68C277.044 126.187 276.511 128.307 275.444 130.04C274.377 131.773 272.937 133.08 271.124 133.96C269.337 134.84 267.337 135.28 265.124 135.28C262.911 135.28 260.924 134.853 259.164 134C257.431 133.12 256.057 131.813 255.044 130.08C254.031 128.32 253.524 126.187 253.524 123.68V106.92H260.364ZM305.927 106.92L296.207 125.72V135H289.367V125.72L279.647 106.92H287.407L292.847 118.68L298.247 106.92H305.927ZM318.843 135.28C316.79 135.28 314.95 134.947 313.323 134.28C311.696 133.613 310.39 132.627 309.403 131.32C308.443 130.013 307.936 128.44 307.883 126.6H315.163C315.27 127.64 315.63 128.44 316.243 129C316.856 129.533 317.656 129.8 318.643 129.8C319.656 129.8 320.456 129.573 321.043 129.12C321.63 128.64 321.923 127.987 321.923 127.16C321.923 126.467 321.683 125.893 321.203 125.44C320.75 124.987 320.176 124.613 319.483 124.32C318.816 124.027 317.856 123.693 316.603 123.32C314.79 122.76 313.31 122.2 312.163 121.64C311.016 121.08 310.03 120.253 309.203 119.16C308.376 118.067 307.963 116.64 307.963 114.88C307.963 112.267 308.91 110.227 310.803 108.76C312.696 107.267 315.163 106.52 318.203 106.52C321.296 106.52 323.79 107.267 325.683 108.76C327.576 110.227 328.59 112.28 328.723 114.92H321.323C321.27 114.013 320.936 113.307 320.323 112.8C319.71 112.267 318.923 112 317.963 112C317.136 112 316.47 112.227 315.963 112.68C315.456 113.107 315.203 113.733 315.203 114.56C315.203 115.467 315.63 116.173 316.483 116.68C317.336 117.187 318.67 117.733 320.483 118.32C322.296 118.933 323.763 119.52 324.883 120.08C326.03 120.64 327.016 121.453 327.843 122.52C328.67 123.587 329.083 124.96 329.083 126.64C329.083 128.24 328.67 129.693 327.843 131C327.043 132.307 325.87 133.347 324.323 134.12C322.776 134.893 320.95 135.28 318.843 135.28ZM342.293 105.92L341.493 125.08H335.693L334.893 105.92H342.293ZM338.693 135.32C337.493 135.32 336.506 134.973 335.733 134.28C334.986 133.56 334.613 132.68 334.613 131.64C334.613 130.573 334.986 129.68 335.733 128.96C336.506 128.24 337.493 127.88 338.693 127.88C339.866 127.88 340.826 128.24 341.573 128.96C342.346 129.68 342.733 130.573 342.733 131.64C342.733 132.68 342.346 133.56 341.573 134.28C340.826 134.973 339.866 135.32 338.693 135.32ZM364.273 106.92V135H357.433V106.92H364.273ZM370.79 106.92H377.79L373.31 117.64H368.71L370.79 106.92ZM413.608 106.92V135H406.768V118.16L400.488 135H394.968L388.648 118.12V135H381.808V106.92H389.888L397.768 126.36L405.568 106.92H413.608ZM445.643 115.8C445.137 114.867 444.403 114.16 443.443 113.68C442.51 113.173 441.403 112.92 440.123 112.92C437.91 112.92 436.137 113.653 434.803 115.12C433.47 116.56 432.803 118.493 432.803 120.92C432.803 123.507 433.497 125.533 434.883 127C436.297 128.44 438.23 129.16 440.683 129.16C442.363 129.16 443.777 128.733 444.923 127.88C446.097 127.027 446.95 125.8 447.483 124.2H438.803V119.16H453.683V125.52C453.177 127.227 452.31 128.813 451.083 130.28C449.883 131.747 448.35 132.933 446.483 133.84C444.617 134.747 442.51 135.2 440.163 135.2C437.39 135.2 434.91 134.6 432.723 133.4C430.563 132.173 428.87 130.48 427.643 128.32C426.443 126.16 425.843 123.693 425.843 120.92C425.843 118.147 426.443 115.68 427.643 113.52C428.87 111.333 430.563 109.64 432.723 108.44C434.883 107.213 437.35 106.6 440.123 106.6C443.483 106.6 446.31 107.413 448.603 109.04C450.923 110.667 452.457 112.92 453.203 115.8H445.643ZM464.312 106.92V135H457.472V106.92H464.312ZM482.549 135.28C479.909 135.28 477.482 134.667 475.269 133.44C473.082 132.213 471.336 130.507 470.029 128.32C468.749 126.107 468.109 123.627 468.109 120.88C468.109 118.133 468.749 115.667 470.029 113.48C471.336 111.293 473.082 109.587 475.269 108.36C477.482 107.133 479.909 106.52 482.549 106.52C485.189 106.52 487.602 107.133 489.789 108.36C492.002 109.587 493.736 111.293 494.989 113.48C496.269 115.667 496.909 118.133 496.909 120.88C496.909 123.627 496.269 126.107 494.989 128.32C493.709 130.507 491.976 132.213 489.789 133.44C487.602 134.667 485.189 135.28 482.549 135.28ZM482.549 129.04C484.789 129.04 486.576 128.293 487.909 126.8C489.269 125.307 489.949 123.333 489.949 120.88C489.949 118.4 489.269 116.427 487.909 114.96C486.576 113.467 484.789 112.72 482.549 112.72C480.282 112.72 478.469 113.453 477.109 114.92C475.776 116.387 475.109 118.373 475.109 120.88C475.109 123.36 475.776 125.347 477.109 126.84C478.469 128.307 480.282 129.04 482.549 129.04ZM527.074 106.92L517.114 135H508.554L498.594 106.92H505.874L512.834 128.12L519.834 106.92H527.074ZM547.413 130.04H536.933L535.253 135H528.093L538.253 106.92H546.173L556.333 135H549.093L547.413 130.04ZM545.653 124.76L542.173 114.48L538.733 124.76H545.653ZM584.545 135H577.705L566.265 117.68V135H559.425V106.92H566.265L577.705 124.32V106.92H584.545V135ZM596.343 106.92V135H589.503V106.92H596.343ZM628.057 106.92V112.4H616.617V118.32H625.177V123.64H616.617V135H609.777V106.92H628.057ZM649.132 130.04H638.652L636.972 135H629.812L639.972 106.92H647.892L658.052 135H650.812L649.132 130.04ZM647.372 124.76L643.892 114.48L640.452 124.76H647.372ZM667.984 129.72H676.944V135H661.144V106.92H667.984V129.72ZM697.687 130.04H687.207L685.527 135H678.367L688.527 106.92H696.447L706.607 135H699.367L697.687 130.04ZM695.927 124.76L692.447 114.48L689.007 124.76H695.927ZM736.059 106.92L726.099 135H717.539L707.579 106.92H714.859L721.819 128.12L728.819 106.92H736.059ZM745.758 106.92V135H738.918V106.92H745.758ZM775.834 135H768.994L757.554 117.68V135H750.714V106.92H757.554L768.994 124.32V106.92H775.834V135ZM805.113 106.92V135H798.273V123.44H787.633V135H780.793V106.92H787.633V117.92H798.273V106.92H805.113ZM827.53 130.04H817.05L815.37 135H808.21L818.37 106.92H826.29L836.45 135H829.21L827.53 130.04ZM825.77 124.76L822.29 114.48L818.85 124.76H825.77Z" fill="white"/>
<mask id="path-2-inside-1_2010_2" fill="white">
<path d="M20 20H60V60H20V20Z"/>
</mask>
<path d="M20 20H60V60H20V20Z" fill="#0C0C0C"/>
<path d="M20 20V19H19V20H20ZM20 20V21H60V20V19H20V20ZM20 60H21V20H20H19V60H20Z" fill="white" mask="url(#path-2-inside-1_2010_2)"/>
<mask id="path-4-inside-2_2010_2" fill="white">
<path d="M901 20H941V60H901V20Z"/>
</mask>
<path d="M901 20H941V60H901V20Z" fill="#0C0C0C"/>
<path d="M941 20H942V19H941V20ZM901 20V21H941V20V19H901V20ZM941 20H940V60H941H942V20H941Z" fill="white" mask="url(#path-4-inside-2_2010_2)"/>
<mask id="path-6-inside-3_2010_2" fill="white">
<path d="M20 182H60V222H20V182Z"/>
</mask>
<path d="M20 182H60V222H20V182Z" fill="#0C0C0C"/>
<path d="M20 222H19V223H20V222ZM60 222V221H20V222V223H60V222ZM20 222H21V182H20H19V222H20Z" fill="white" mask="url(#path-6-inside-3_2010_2)"/>
<mask id="path-8-inside-4_2010_2" fill="white">
<path d="M901 182H941V222H901V182Z"/>
</mask>
<path d="M901 182H941V222H901V182Z" fill="#0C0C0C"/>
<path d="M941 222V223H942V222H941ZM941 182H940V222H941H942V182H941ZM941 222V221H901V222V223H941V222Z" fill="white" mask="url(#path-8-inside-4_2010_2)"/>
<circle cx="42" cy="44" r="6" fill="#D5232E"/>
<path d="M55.5742 40.4336C56.3516 40.4336 56.9922 40.5273 57.4961 40.7148C58.0039 40.9023 58.3809 41.1855 58.627 41.5645C58.873 41.9434 58.9961 42.4219 58.9961 43C58.9961 43.3906 58.9219 43.7324 58.7734 44.0254C58.625 44.3184 58.4297 44.5664 58.1875 44.7695C57.9453 44.9727 57.6836 45.1387 57.4023 45.2676L59.9219 49H57.9062L55.8613 45.7129H54.8945V49H53.0781V40.4336H55.5742ZM55.4453 41.9219H54.8945V44.2363H55.4805C56.082 44.2363 56.5117 44.1367 56.7695 43.9375C57.0312 43.7344 57.1621 43.4375 57.1621 43.0469C57.1621 42.6406 57.0215 42.3516 56.7402 42.1797C56.4629 42.0078 56.0312 41.9219 55.4453 41.9219ZM65.9336 49H61V40.4336H65.9336V41.9219H62.8164V43.8027H65.7168V45.291H62.8164V47.5H65.9336V49ZM71.3652 41.8223C71.0176 41.8223 70.709 41.8906 70.4395 42.0273C70.1738 42.1602 69.9492 42.3535 69.7656 42.6074C69.5859 42.8613 69.4492 43.168 69.3555 43.5273C69.2617 43.8867 69.2148 44.291 69.2148 44.7402C69.2148 45.3457 69.2891 45.8633 69.4375 46.293C69.5898 46.7188 69.8242 47.0449 70.1406 47.2715C70.457 47.4941 70.8652 47.6055 71.3652 47.6055C71.7129 47.6055 72.0605 47.5664 72.4082 47.4883C72.7598 47.4102 73.1406 47.2988 73.5508 47.1543V48.6777C73.1719 48.834 72.7988 48.9453 72.4316 49.0117C72.0645 49.082 71.6523 49.1172 71.1953 49.1172C70.3125 49.1172 69.5859 48.9355 69.0156 48.5723C68.4492 48.2051 68.0293 47.6934 67.7559 47.0371C67.4824 46.377 67.3457 45.6074 67.3457 44.7285C67.3457 44.0801 67.4336 43.4863 67.6094 42.9473C67.7852 42.4082 68.043 41.9414 68.3828 41.5469C68.7227 41.1523 69.1426 40.8477 69.6426 40.6328C70.1426 40.418 70.7168 40.3105 71.3652 40.3105C71.791 40.3105 72.2168 40.3652 72.6426 40.4746C73.0723 40.5801 73.4824 40.7266 73.873 40.9141L73.2871 42.3906C72.9668 42.2383 72.6445 42.1055 72.3203 41.9922C71.9961 41.8789 71.6777 41.8223 71.3652 41.8223Z" fill="white"/>
<mask id="path-12-inside-5_2010_2" fill="white">
<path d="M923 38H925V46H923V48H893V36H923V38Z"/>
</mask>
<path d="M923 38H922V39H923V38ZM925 38H926V37H925V38ZM925 46V47H926V46H925ZM923 46V45H922V46H923ZM923 48V49H924V48H923ZM893 48H892V49H893V48ZM893 36V35H892V36H893ZM923 36H924V35H923V36ZM923 38V39H925V38V37H923V38ZM925 38H924V46H925H926V38H925ZM925 46V45H923V46V47H925V46ZM923 46H922V48H923H924V46H923ZM923 48V47H893V48V49H923V48ZM893 48H894V36H893H892V48H893ZM893 36V37H923V36V35H893V36ZM923 36H922V38H923H924V36H923Z" fill="white" mask="url(#path-12-inside-5_2010_2)"/>
<rect x="895" y="38" width="6" height="8" fill="white"/>
<rect x="902" y="38" width="6" height="8" fill="white"/>
<rect x="909" y="38" width="6" height="8" fill="white"/>
<path d="M883.252 198.705C883.252 199.4 883.199 200.021 883.094 200.568C882.988 201.115 882.822 201.578 882.596 201.957C882.369 202.336 882.076 202.625 881.717 202.824C881.357 203.02 880.926 203.117 880.422 203.117C879.785 203.117 879.258 202.943 878.84 202.596C878.426 202.248 878.115 201.746 877.908 201.09C877.705 200.43 877.604 199.635 877.604 198.705C877.604 197.791 877.695 197.006 877.879 196.35C878.066 195.689 878.367 195.184 878.781 194.832C879.195 194.477 879.742 194.299 880.422 194.299C881.066 194.299 881.598 194.475 882.016 194.826C882.434 195.174 882.744 195.678 882.947 196.338C883.15 196.994 883.252 197.783 883.252 198.705ZM878.582 198.705C878.582 199.502 878.643 200.166 878.764 200.697C878.885 201.229 879.08 201.627 879.35 201.893C879.623 202.154 879.98 202.285 880.422 202.285C880.863 202.285 881.219 202.154 881.488 201.893C881.762 201.631 881.959 201.234 882.08 200.703C882.205 200.172 882.268 199.506 882.268 198.705C882.268 197.92 882.207 197.264 882.086 196.736C881.965 196.205 881.77 195.807 881.5 195.541C881.23 195.271 880.871 195.137 880.422 195.137C879.973 195.137 879.613 195.271 879.344 195.541C879.074 195.807 878.879 196.205 878.758 196.736C878.641 197.264 878.582 197.92 878.582 198.705ZM890.119 198.705C890.119 199.4 890.066 200.021 889.961 200.568C889.855 201.115 889.689 201.578 889.463 201.957C889.236 202.336 888.943 202.625 888.584 202.824C888.225 203.02 887.793 203.117 887.289 203.117C886.652 203.117 886.125 202.943 885.707 202.596C885.293 202.248 884.982 201.746 884.775 201.09C884.572 200.43 884.471 199.635 884.471 198.705C884.471 197.791 884.562 197.006 884.746 196.35C884.934 195.689 885.234 195.184 885.648 194.832C886.062 194.477 886.609 194.299 887.289 194.299C887.934 194.299 888.465 194.475 888.883 194.826C889.301 195.174 889.611 195.678 889.814 196.338C890.018 196.994 890.119 197.783 890.119 198.705ZM885.449 198.705C885.449 199.502 885.51 200.166 885.631 200.697C885.752 201.229 885.947 201.627 886.217 201.893C886.49 202.154 886.848 202.285 887.289 202.285C887.73 202.285 888.086 202.154 888.355 201.893C888.629 201.631 888.826 201.234 888.947 200.703C889.072 200.172 889.135 199.506 889.135 198.705C889.135 197.92 889.074 197.264 888.953 196.736C888.832 196.205 888.637 195.807 888.367 195.541C888.098 195.271 887.738 195.137 887.289 195.137C886.84 195.137 886.48 195.271 886.211 195.541C885.941 195.807 885.746 196.205 885.625 196.736C885.508 197.264 885.449 197.92 885.449 198.705ZM891.613 202.391C891.613 202.117 891.68 201.924 891.812 201.811C891.945 201.693 892.107 201.635 892.299 201.635C892.498 201.635 892.666 201.693 892.803 201.811C892.939 201.924 893.008 202.117 893.008 202.391C893.008 202.66 892.939 202.857 892.803 202.982C892.666 203.104 892.498 203.164 892.299 203.164C892.107 203.164 891.945 203.104 891.812 202.982C891.68 202.857 891.613 202.66 891.613 202.391ZM891.613 197.193C891.613 196.912 891.68 196.715 891.812 196.602C891.945 196.484 892.107 196.426 892.299 196.426C892.498 196.426 892.666 196.484 892.803 196.602C892.939 196.715 893.008 196.912 893.008 197.193C893.008 197.459 892.939 197.652 892.803 197.773C892.666 197.895 892.498 197.955 892.299 197.955C892.107 197.955 891.945 197.895 891.812 197.773C891.68 197.652 891.613 197.459 891.613 197.193ZM900.139 198.705C900.139 199.4 900.086 200.021 899.98 200.568C899.875 201.115 899.709 201.578 899.482 201.957C899.256 202.336 898.963 202.625 898.604 202.824C898.244 203.02 897.812 203.117 897.309 203.117C896.672 203.117 896.145 202.943 895.727 202.596C895.312 202.248 895.002 201.746 894.795 201.09C894.592 200.43 894.49 199.635 894.49 198.705C894.49 197.791 894.582 197.006 894.766 196.35C894.953 195.689 895.254 195.184 895.668 194.832C896.082 194.477 896.629 194.299 897.309 194.299C897.953 194.299 898.484 194.475 898.902 194.826C899.32 195.174 899.631 195.678 899.834 196.338C900.037 196.994 900.139 197.783 900.139 198.705ZM895.469 198.705C895.469 199.502 895.529 200.166 895.65 200.697C895.771 201.229 895.967 201.627 896.236 201.893C896.51 202.154 896.867 202.285 897.309 202.285C897.75 202.285 898.105 202.154 898.375 201.893C898.648 201.631 898.846 201.234 898.967 200.703C899.092 200.172 899.154 199.506 899.154 198.705C899.154 197.92 899.094 197.264 898.973 196.736C898.852 196.205 898.656 195.807 898.387 195.541C898.117 195.271 897.758 195.137 897.309 195.137C896.859 195.137 896.5 195.271 896.23 195.541C895.961 195.807 895.766 196.205 895.645 196.736C895.527 197.264 895.469 197.92 895.469 198.705ZM907.006 198.705C907.006 199.4 906.953 200.021 906.848 200.568C906.742 201.115 906.576 201.578 906.35 201.957C906.123 202.336 905.83 202.625 905.471 202.824C905.111 203.02 904.68 203.117 904.176 203.117C903.539 203.117 903.012 202.943 902.594 202.596C902.18 202.248 901.869 201.746 901.662 201.09C901.459 200.43 901.357 199.635 901.357 198.705C901.357 197.791 901.449 197.006 901.633 196.35C901.82 195.689 902.121 195.184 902.535 194.832C902.949 194.477 903.496 194.299 904.176 194.299C904.82 194.299 905.352 194.475 905.77 194.826C906.188 195.174 906.498 195.678 906.701 196.338C906.904 196.994 907.006 197.783 907.006 198.705ZM902.336 198.705C902.336 199.502 902.396 200.166 902.518 200.697C902.639 201.229 902.834 201.627 903.104 201.893C903.377 202.154 903.734 202.285 904.176 202.285C904.617 202.285 904.973 202.154 905.242 201.893C905.516 201.631 905.713 201.234 905.834 200.703C905.959 200.172 906.021 199.506 906.021 198.705C906.021 197.92 905.961 197.264 905.84 196.736C905.719 196.205 905.523 195.807 905.254 195.541C904.984 195.271 904.625 195.137 904.176 195.137C903.727 195.137 903.367 195.271 903.098 195.541C902.828 195.807 902.633 196.205 902.512 196.736C902.395 197.264 902.336 197.92 902.336 198.705ZM908.5 202.391C908.5 202.117 908.566 201.924 908.699 201.811C908.832 201.693 908.994 201.635 909.186 201.635C909.385 201.635 909.553 201.693 909.689 201.811C909.826 201.924 909.895 202.117 909.895 202.391C909.895 202.66 909.826 202.857 909.689 202.982C909.553 203.104 909.385 203.164 909.186 203.164C908.994 203.164 908.832 203.104 908.699 202.982C908.566 202.857 908.5 202.66 908.5 202.391ZM908.5 197.193C908.5 196.912 908.566 196.715 908.699 196.602C908.832 196.484 908.994 196.426 909.186 196.426C909.385 196.426 909.553 196.484 909.689 196.602C909.826 196.715 909.895 196.912 909.895 197.193C909.895 197.459 909.826 197.652 909.689 197.773C909.553 197.895 909.385 197.955 909.186 197.955C908.994 197.955 908.832 197.895 908.699 197.773C908.566 197.652 908.5 197.459 908.5 197.193ZM917.025 198.705C917.025 199.4 916.973 200.021 916.867 200.568C916.762 201.115 916.596 201.578 916.369 201.957C916.143 202.336 915.85 202.625 915.49 202.824C915.131 203.02 914.699 203.117 914.195 203.117C913.559 203.117 913.031 202.943 912.613 202.596C912.199 202.248 911.889 201.746 911.682 201.09C911.479 200.43 911.377 199.635 911.377 198.705C911.377 197.791 911.469 197.006 911.652 196.35C911.84 195.689 912.141 195.184 912.555 194.832C912.969 194.477 913.516 194.299 914.195 194.299C914.84 194.299 915.371 194.475 915.789 194.826C916.207 195.174 916.518 195.678 916.721 196.338C916.924 196.994 917.025 197.783 917.025 198.705ZM912.355 198.705C912.355 199.502 912.416 200.166 912.537 200.697C912.658 201.229 912.854 201.627 913.123 201.893C913.396 202.154 913.754 202.285 914.195 202.285C914.637 202.285 914.992 202.154 915.262 201.893C915.535 201.631 915.732 201.234 915.854 200.703C915.979 200.172 916.041 199.506 916.041 198.705C916.041 197.92 915.98 197.264 915.859 196.736C915.738 196.205 915.543 195.807 915.273 195.541C915.004 195.271 914.645 195.137 914.195 195.137C913.746 195.137 913.387 195.271 913.117 195.541C912.848 195.807 912.652 196.205 912.531 196.736C912.414 197.264 912.355 197.92 912.355 198.705ZM923.893 198.705C923.893 199.4 923.84 200.021 923.734 200.568C923.629 201.115 923.463 201.578 923.236 201.957C923.01 202.336 922.717 202.625 922.357 202.824C921.998 203.02 921.566 203.117 921.062 203.117C920.426 203.117 919.898 202.943 919.48 202.596C919.066 202.248 918.756 201.746 918.549 201.09C918.346 200.43 918.244 199.635 918.244 198.705C918.244 197.791 918.336 197.006 918.52 196.35C918.707 195.689 919.008 195.184 919.422 194.832C919.836 194.477 920.383 194.299 921.062 194.299C921.707 194.299 922.238 194.475 922.656 194.826C923.074 195.174 923.385 195.678 923.588 196.338C923.791 196.994 923.893 197.783 923.893 198.705ZM919.223 198.705C919.223 199.502 919.283 200.166 919.404 200.697C919.525 201.229 919.721 201.627 919.99 201.893C920.264 202.154 920.621 202.285 921.062 202.285C921.504 202.285 921.859 202.154 922.129 201.893C922.402 201.631 922.6 201.234 922.721 200.703C922.846 200.172 922.908 199.506 922.908 198.705C922.908 197.92 922.848 197.264 922.727 196.736C922.605 196.205 922.41 195.807 922.141 195.541C921.871 195.271 921.512 195.137 921.062 195.137C920.613 195.137 920.254 195.271 919.984 195.541C919.715 195.807 919.52 196.205 919.398 196.736C919.281 197.264 919.223 197.92 919.223 198.705Z" fill="white"/>
</svg>
